<svg width="160" height="160" viewBox="0 0 160 160" fill="none" xmlns="http://www.w3.org/2000/svg">
<rect width="160" height="160" fill="#F5F1EE"/>
<mask id="mask0_22629_1927" style="mask-type:alpha" maskUnits="userSpaceOnUse" x="0" y="0" width="160" height="160">
<rect width="160" height="160" fill="#F5F1EE"/>
</mask>
<g mask="url(#mask0_22629_1927)">
<path d="M191.798 184.034C185.253 167.748 159.918 139.162 145.784 128.301C132.529 118.121 115.013 112.004 98.2662 114.706L100.034 96.3664C100.979 95.0596 110.181 96.1797 113.059 90.3484C114.431 87.57 114.387 82.2658 113.487 79.3557C112.982 77.7084 110.961 77.6315 110.357 76.6432C109.512 75.2265 110.017 72.9643 109.522 71.4598C106.689 62.7842 108.391 63.4651 107.798 55.0421C107.568 51.7585 106.975 45.5099 102.659 45.9272C102.593 48.9692 104.35 51.3851 104.767 54.4271C104.877 55.2068 105.393 57.0847 104.119 56.898C103.417 53.9329 101.429 43.017 98.969 41.864C98.1344 41.4686 96.9923 42.2922 96.8606 42.2044C96.3115 41.831 94.3787 33.7045 90.8865 36.1095L90.1946 44.4666C87.4382 41.6773 84.7257 34.8686 80.2671 34.2206C76.5553 33.6716 76.6211 36.6806 73.6231 32.1122C69.8124 31.0689 71.3718 37.603 71.899 39.3381C71.5805 39.7335 66.4301 33.2433 63.2673 35.1102C63.0916 35.209 61.082 38.1631 61.0381 38.3498C60.5219 40.8976 67.726 51.6048 67.4295 52.7249C61.9386 58.7539 60.6207 66.9024 56.8979 73.7111C48.7604 68.2531 46.1687 77.5107 47.0033 84.3524C47.805 90.9524 54.4709 87.9434 54.8882 90.1617C54.0975 97.3438 52.5821 104.625 53.5924 111.774C50.9787 110.961 48.6506 109.281 45.8503 108.919C17.122 105.174 2.61507 131.585 -13.0449 150.177C-15.9331 153.592 -22.588 161.565 -26.1901 163.377C-38.3359 169.472 -41.8281 157.282 -38.2591 147.651C-33.1525 133.88 0.825036 120.296 12.2131 110.302C15.2002 107.689 16.7157 105.91 16.3643 101.638C23.7879 99.7159 40.59 99.2876 34.572 87.6469C44.9497 86.7464 47.3108 79.8389 47.0033 70.4385C46.9155 67.9456 46.2236 62.5975 45.5098 60.2364C44.4995 56.9199 43.1927 55.7339 39.8762 54.8883C25.1716 53.0434 10.6317 49.8806 -4.2815 51.3742L-7.21361 66.3752L-7.53206 67.7589L-7.90547 69.3403L-7.87249 79.9487C-24.0486 84.8246 -39.9942 90.5022 -54.5121 99.2107C-80.1655 114.618 -85.843 141.04 -81.8347 169.219C-80.6377 177.686 -77.7934 184.605 -72.3025 191.15C-55.8958 210.709 1.30827 220.669 18.8352 199.595C23.0082 194.565 25.4462 187.087 30.8931 182.76L27.95 206.513C28.8505 221.855 28.4661 237.493 27.6974 252.758C26.138 283.66 20.9106 314.278 19.1865 345.202H25.7756C28.0378 337.196 26.786 328.828 27.2142 320.658C27.95 306.579 29.7071 292.446 29.4435 278.257L34.561 234.704C37.3613 234.846 40.2166 234.539 43.0169 234.682C60.5329 235.516 77.5985 238.097 94.9717 239.821C99.562 240.282 124.073 240.37 125.765 242.709C126.456 251.879 125.303 261.016 126.083 270.197C127.247 283.869 132.376 296.641 133.397 310.456L135.593 345.202H139.261C138.525 326.599 137.603 307.886 134.133 289.59C138.811 290.304 143.643 291.095 148.398 291.051C150.66 291.018 157.216 290.557 159.226 290.162C160.017 289.997 164.256 287.899 164.563 287.416L163.421 282.277C166.54 283.551 167.396 276.511 166.737 274.985C164.058 268.78 146.981 275.479 151.649 262.828C154.504 255.119 171.295 253.45 178.29 249.211C204.427 233.408 202.055 209.566 191.798 184.034ZM37.1307 60.5549C45.8942 63.5749 45.7734 81.4971 36.7683 83.979C36.8562 82.3537 37.8445 80.9371 37.5371 79.2239C37.2296 77.4119 35.4945 77.6865 35.2858 76.8848C34.9234 75.4572 36.3071 60.5329 37.1307 60.5549ZM97.5304 132.639C97.3986 133.485 97.168 133.957 96.4432 134.429C89.6346 131.783 83.8362 127.258 78.499 122.382L98.2552 118.374C98.7274 118.901 97.783 131.113 97.5304 132.639ZM94.6093 48.1236H95.3231L96.0588 51.7805C94.4006 51.3412 94.4885 49.4963 94.6093 48.1236ZM92.391 57.6338L88.0093 52.5163C91.0292 52.055 92.1384 55.1738 92.391 57.6338ZM80.322 37.1638L88.0093 48.1126C84.4512 48.3761 79.6961 42.5558 79.3776 39.5358C79.2348 38.251 79.1909 37.9874 80.322 37.1638ZM76.9067 50.4187L88.734 65.6834C87.0758 67.2099 73.4584 54.1416 71.91 52.1429L76.9067 50.4187ZM66.0567 38.6134C67.6491 39.3052 74.8421 47.1242 74.0953 48.1126L69.7686 49.5402C68.2201 45.8613 65.266 42.9621 66.0567 38.6134ZM64.0141 64.0142C64.7499 62.2681 68.1652 54.493 70.4604 55.7559C71.5585 56.3709 75.0508 61.9935 76.6322 63.52C79.6192 66.4082 85.769 70.4605 89.9421 70.7679C92.402 70.9327 94.5214 69.4062 96.6079 70.9986L100.55 79.4875L110.017 79.9048C111.313 80.8053 110.752 86.1424 110.357 87.6469C108.6 94.3787 98.7604 91.4905 97.157 94.214L95.96 115.332C83.4957 120.296 70.1419 119.582 57.436 116.002C56.0962 114.684 56.3818 105.734 56.5026 103.34C57.1066 90.6559 59.0723 75.7207 64.0141 64.0142ZM50.6823 77.0385C51.9232 73.766 57.3811 75.2046 56.5245 78.8505C55.6899 78.3673 50.0234 78.7407 50.6823 77.0385ZM49.9464 79.5863C51.1325 79.2788 50.3858 80.5637 50.825 80.8492C51.7365 81.4312 54.4819 81.0579 55.7777 81.8046L55.02 86.1314C50.1331 86.5268 49.3864 83.99 49.9464 79.5863ZM55.064 119.099C61.038 120.581 67.1878 122.207 73.3706 122.031C71.8551 125.117 55.4263 132.584 53.6034 130.805L55.064 119.099ZM24.4797 82.2549C19.9113 86.6476 28.51 85.2858 31.6289 85.4506L22.8544 90.9414C22.1077 94.3787 31.4642 91.831 33.1005 92.0286C29.2898 98.1455 20.68 95.8393 14.8048 98.6177L8.95157 85.8459C9.1163 85.0552 13.0587 83.3091 14.08 82.8918C15.903 82.1341 21.5806 80.3111 23.2169 80.3111H34.561L24.4797 82.2549ZM-2.08515 55.0091L32.3646 58.3695C30.8382 64.3875 29.6741 70.3836 30.1793 76.6651C24.908 76.742 17.9566 77.4888 13.1685 79.784C10.8953 80.8712 9.5336 83.0346 7.16154 83.2981C6.44772 83.1883 5.39344 77.8731 1.15448 77.6206C-0.404929 77.5327 -3.49078 79.0921 -4.65485 77.4339C-5.98364 75.523 -3.51278 56.1073 -2.08515 55.0091ZM124.611 190.447C123.755 183.199 121.086 176.182 120.955 168.857C125.062 168.55 127.994 171.613 130.454 174.37C137.768 182.573 140.952 191.062 140.315 202.154C139.81 210.983 132.013 216.595 131.288 226.39C130.904 231.596 133.595 233.111 133.463 237.284C133.375 240.184 131.772 241.622 131.19 244.225C129.301 244.433 130.036 244.214 129.718 243.16C129.147 241.249 128.576 237.746 128.367 235.714C126.841 220.9 126.336 205.163 124.611 190.447ZM159.753 274.963C159.775 276.379 157.568 275.347 156.832 276.786C155.558 279.279 158.897 278.477 159.028 278.62C157.293 282.057 150.364 277.587 150.968 283.001C152.011 282.661 161.532 284.165 160.126 285.934C151.956 288.855 143.006 287.405 134.484 287.405L132.782 286.175C130.805 276.5 129.729 266.781 129.092 256.997L134.879 242.764C139.206 249.189 143.456 253.845 150.232 257.809C148.134 260.917 146.048 266.77 147.519 270.372C148.738 273.359 156.854 274.326 159.753 274.963ZM182.068 242.007C173.107 249.793 164.245 249.968 154.086 255.097C143.665 252.253 137.713 240.502 134.835 230.728C131.497 219.362 141.809 213.322 143.478 203.439C146.004 188.503 138.822 177.95 127.884 168.879C125.292 166.727 117.693 161.038 117.594 167.748C117.44 178.576 120.405 195.795 121.778 207.183C122.997 217.309 125.885 227.291 125.347 237.636C119.56 237.175 113.794 236.263 108.007 235.725C88.5583 233.913 67.8028 230.706 48.0796 231.025C44.796 231.08 33.2432 233.77 32.3646 229.235C31.9473 227.093 32.7271 224.677 32.6941 222.635C32.3427 205.975 32.2109 191.227 35.736 174.611C36.3949 171.537 39.7005 168.967 36.2742 166.727C34.5391 166.21 30.5856 170.131 29.5424 171.515C16.8914 188.251 20.8009 201.275 -5.3467 204.701C-18.9751 206.481 -35.3159 206.755 -47.923 201.176C-60.1567 195.773 -75.7728 185.319 -78.0021 171.24C-83.3721 137.46 -75.4323 113.059 -43.5303 98.4859C-28.7159 91.7102 -12.8472 86.384 3.31792 84.0449C7.3043 89.7115 13.9592 101.824 9.23704 108.062C5.73386 112.696 -8.19095 118.934 -13.6928 122.448C-19.1507 125.929 -38.7642 138.097 -40.8946 142.83C-43.1898 147.948 -44.7493 160.159 -42.8604 165.387C-41.0484 170.416 -31.2856 171.02 -26.8819 169.999C-22.4563 168.978 -11.1671 158.556 -8.7291 154.482C-5.51145 149.09 -5.48946 148.727 -1.56897 143.72C8.44639 130.926 10.4231 123.458 26.2917 114.849C33.8252 110.764 45.2243 109.863 52.5491 114.706C53.2849 118.703 48.3431 131.014 50.2649 133.781C59.9509 136.988 68.3519 129.433 76.6871 125.699C81.0139 128.532 94.4116 141.315 99.4193 137.46C102 135.472 101.253 119.626 102.604 118.681C115.782 116.287 126.918 121.624 137.735 128.301C162.224 143.456 183.452 172.349 191.029 200.166C195.938 218.176 197.212 228.839 182.068 242.007Z" fill="black"/>
<path d="M81.2334 136.834C83.0345 141.721 83.2212 146.663 76.7639 146.125C64.2228 145.071 73.1179 132.628 81.2334 136.834ZM78.488 142.512C79.0261 136.812 71.1083 141.084 75.3253 142.391C76.3247 142.698 77.4557 142.501 78.488 142.512Z" fill="black"/>
<path d="M78.9822 160.313C80.6185 162.147 81.0358 166.21 79.5972 168.143C78.6088 169.472 74.4248 168.802 72.7336 168.758C69.4281 164.091 74.5456 155.338 78.9822 160.313ZM74.8312 165.925C78.4881 166.199 78.4881 163.465 74.8312 163.74V165.925Z" fill="black"/>
<path d="M71.899 83.99C73.0411 85.813 74.7872 86.7135 75.2814 89.0746C75.7206 91.1941 75.0617 94.9938 72.6787 93.4673C72.47 93.3355 71.9649 89.8213 71.2072 88.6902C70.3945 87.4932 68.5166 87.2296 68.0005 85.9997C65.1232 79.2239 71.7672 82.3208 73.7659 80.3441L76.6651 72.2835C79.114 72.2615 77.917 85.802 71.91 83.979L71.899 83.99Z" fill="black"/>
<path d="M81.9473 93.621C89.1623 92.0836 88.9647 104.822 82.4525 105.196C80.4428 105.306 75.0617 102.846 75.0727 100.441C75.0727 98.7605 80.2232 93.9834 81.9473 93.621ZM84.3413 96.4213C83.8142 95.8283 77.3569 99.2217 78.499 100.792C80.7283 101.791 81.7826 102.505 84.2644 101.451L84.3413 96.4213Z" fill="black"/>
<path d="M109.962 83.2542C110.939 84.4622 103.669 89.4369 102.648 88.3717C102.165 84.2974 106.294 81.4971 109.962 83.2542Z" fill="black"/>
<path d="M68.4288 75.3912C69.4391 74.337 70.9106 74.5676 71.5256 75.9293C74.0954 81.6289 64.9366 79.0262 68.4288 75.3912Z" fill="black"/>
<path d="M90.9304 82.5075H86.5377L86.8891 79.5644C88.3057 77.4229 91.6552 80.2672 90.9304 82.5075Z" fill="black"/>
</g>
</svg>
