<svg width="456" height="180" viewBox="0 0 456 180" fill="none" xmlns="http://www.w3.org/2000/svg">
<g clip-path="url(#clip0_22680_2019)">
<path d="M202.559 130.257C257.972 162.46 313.149 170.685 325.8 148.629C338.451 126.572 303.786 82.5864 248.372 50.383C192.959 18.1799 137.782 9.95411 125.131 32.0107C112.48 54.0669 147.146 98.0535 202.559 130.257Z" stroke="#959595" stroke-width="0.5" stroke-miterlimit="10"/>
<path d="M193.07 122.928C238.315 168.47 289.497 190.79 307.388 172.781C325.279 154.772 303.105 103.254 257.86 57.7115C212.616 12.1694 161.434 -10.1509 143.543 7.85826C125.652 25.867 147.826 77.3859 193.07 122.928Z" stroke="#CACACA" stroke-width="0.5" stroke-miterlimit="10"/>
<path d="M27.1029 110.234C18.1618 110.234 11.4 108.321 6.81765 104.496C2.27255 100.671 0 95.0088 0 87.5088C0 79.2588 2.3098 73.2025 6.92941 69.34C11.549 65.4775 18.3667 63.5463 27.3824 63.5463C36.9941 63.5463 44.0353 65.4588 48.5059 69.2838C52.9765 73.0713 55.2118 78.6588 55.2118 86.0463C55.2118 94.4088 52.8461 100.54 48.1147 104.44C43.3833 108.303 36.3794 110.234 27.1029 110.234ZM25.8735 90.49H29.2824L30.923 83.2505H24.2171L25.8735 90.49Z" fill="white"/>
<path d="M57.9151 109.221C57.5798 108.434 57.319 107.44 57.1327 106.24C56.9464 105.04 56.8347 103.803 56.7974 102.528C56.7602 101.215 56.7974 99.9588 56.9092 98.7588C57.0582 97.5588 57.2631 96.565 57.5239 95.7775C58.0827 95.5525 58.6229 95.1775 59.1445 94.6525C59.7033 94.09 60.169 93.2088 60.5415 92.0088C60.9141 90.7713 61.1004 89.0463 61.1004 86.8338C61.1004 84.4338 60.8768 82.6338 60.4298 81.4338C60.02 80.1963 59.517 79.3713 58.921 78.9588C58.3621 78.5088 57.8592 78.2838 57.4121 78.2838C57.0768 77.6088 56.8347 76.69 56.6857 75.5275C56.5366 74.365 56.4621 73.1275 56.4621 71.815C56.4994 70.465 56.6112 69.1713 56.7974 67.9338C56.9837 66.6588 57.2631 65.5713 57.6357 64.6713C60.3925 64.7838 62.87 64.8025 65.068 64.7275C67.3033 64.6525 69.52 64.54 71.718 64.39C73.9533 64.24 76.3749 64.1088 78.9827 63.9963C81.6278 63.8463 84.7386 63.7713 88.3151 63.7713C93.568 63.7713 98.0014 64.24 101.615 65.1775C105.229 66.0775 107.967 67.7463 109.83 70.1838C111.73 72.5838 112.68 76.015 112.68 80.4775C112.68 84.34 111.953 87.4338 110.5 89.7588C109.085 92.0838 107.036 93.7713 104.353 94.8213C101.671 95.8338 98.4484 96.34 94.6857 96.34C92.3013 96.34 90.4013 96.1525 88.9857 95.7775C87.57 95.365 86.2661 94.465 85.0739 93.0775L83.9004 94.1463C84.869 95.3088 86.0425 96.2088 87.421 96.8463C88.7994 97.4463 90.5131 97.7838 92.5621 97.8588C92.8974 98.9088 92.8504 99.439 93.5113 101.251C93.8457 102.167 93.5113 102.376 94.6289 104.626C95.1877 105.751 96.1564 108.038 95.7466 109.126C93.9211 108.976 87.868 108.828 84.6268 108.603C81.4229 108.378 77.7533 108.284 73.618 108.321C71.5317 108.321 69.4827 108.378 67.471 108.49C65.4592 108.603 63.6151 108.715 61.9386 108.828C60.2994 108.978 58.9582 109.109 57.9151 109.221ZM83.9004 84.415H87.3092L89.5445 80.6463H81.6651L83.9004 84.415Z" fill="white"/>
<path d="M116.615 109.221C116.317 108.434 116.074 107.44 115.888 106.24C115.702 105.04 115.59 103.803 115.553 102.528C115.553 101.215 115.59 99.9588 115.665 98.7588C115.776 97.5588 115.963 96.565 116.224 95.7775C116.82 95.5525 117.397 95.1775 117.956 94.6525C118.515 94.09 118.98 93.2088 119.353 92.0088C119.725 90.7713 122.147 89.0463 122.147 86.8338C122.147 84.4338 119.688 82.6338 119.241 81.4338C118.831 80.1963 118.328 79.3713 117.732 78.9588C117.174 78.5088 116.671 78.2838 116.224 78.2838C115.888 77.6088 115.646 76.69 115.497 75.5275C115.348 74.365 115.274 73.1275 115.274 71.815C115.311 70.465 115.423 69.1713 115.609 67.9338C115.795 66.6588 116.074 65.5713 116.447 64.6713C117.043 64.7088 118.012 64.765 119.353 64.84C120.731 64.8775 122.315 64.9338 124.103 65.0088C125.928 65.0463 127.828 65.0838 129.803 65.1213C131.777 65.1588 133.715 65.1963 135.615 65.2338C137.552 65.2338 139.284 65.2338 140.812 65.2338C144.724 65.2338 149.064 65.1775 153.832 65.065C158.638 64.9525 163.407 64.8025 168.138 64.615C168.324 65.3275 168.492 66.3588 168.641 67.7088C168.79 69.0588 168.902 70.5588 168.976 72.2088C169.051 73.8588 169.088 75.5275 169.088 77.215C169.088 78.9025 169.032 80.4588 168.921 81.8838C168.809 83.2713 168.641 84.3588 168.418 85.1463C166.667 85.3713 164.729 85.5213 162.606 85.5963C160.482 85.6713 158.322 85.6713 156.124 85.5963C153.963 85.5213 151.914 85.3713 149.976 85.1463C149.529 83.3838 149.529 79.39 149.976 77.665H143.494V82.2775H148.691V90.0963H143.438V94.765H149.976C149.529 93.0025 149.529 88.99 149.976 87.2275C153.106 87.04 156.31 86.9463 159.588 86.9463C162.867 86.9463 165.922 87.04 168.753 87.2275C168.865 87.9025 168.958 88.99 169.032 90.49C169.107 91.9525 169.144 93.6213 169.144 95.4963C169.144 97.3338 169.107 99.19 169.032 101.065C168.995 102.94 168.921 104.609 168.809 106.071C168.697 107.534 168.548 108.584 168.362 109.221C164.45 109.146 160.203 108.978 155.621 108.715C151.038 108.49 146.549 108.378 142.153 108.378C139.769 108.378 137.254 108.396 134.609 108.434C132.001 108.509 129.468 108.584 127.009 108.659C124.587 108.771 122.445 108.865 120.582 108.94C118.757 109.053 117.434 109.146 116.615 109.221Z" fill="white"/>
<path d="M172.97 109.221C172.672 108.434 172.43 107.44 172.244 106.24C172.058 105.04 171.946 103.803 171.909 102.528C171.909 101.215 171.946 99.9588 172.02 98.7588C172.132 97.5588 172.318 96.565 172.579 95.7775C173.175 95.5525 173.753 95.1775 174.311 94.6525C174.87 94.09 175.336 93.2088 175.709 92.0088C176.081 90.7713 176.267 89.0463 176.267 86.8338C176.267 84.4338 176.044 82.6338 175.597 81.4338C175.187 80.1963 174.684 79.3713 174.088 78.9588C173.529 78.5088 173.026 78.2838 172.579 78.2838C172.244 77.6088 172.002 76.69 171.853 75.5275C171.704 74.365 171.629 73.1275 171.629 71.815C171.666 70.465 171.778 69.1713 171.964 67.9338C172.151 66.6588 172.43 65.5713 172.803 64.6713C173.846 64.7463 175.057 64.8588 176.435 65.0088C177.851 65.1213 179.285 65.2338 180.738 65.3463C182.228 65.4213 183.607 65.4588 184.873 65.4588C187.593 65.4588 190.443 65.4025 193.423 65.29C196.441 65.14 199.943 64.9338 203.929 64.6713C203.333 67.1463 203.091 69.1713 203.203 70.7463C203.352 72.3213 204.041 73.69 205.27 74.8525C206.5 76.015 208.4 77.215 210.97 78.4525L213.954 79.015L211.697 76.99C209.35 75.865 207.636 74.815 206.556 73.84C205.512 72.8275 204.954 71.6275 204.879 70.24C204.805 68.815 205.047 66.9588 205.606 64.6713C207.208 64.7088 209.014 64.8588 211.026 65.1213C213.075 65.3838 215.404 65.515 218.011 65.515C220.321 65.515 222.408 65.4213 224.27 65.2338C226.17 65.0088 227.884 64.8213 229.411 64.6713C229.747 65.5713 230.008 66.6588 230.194 67.9338C230.38 69.1713 230.473 70.465 230.473 71.815C230.473 73.165 230.399 74.4213 230.25 75.5838C230.101 76.7463 229.877 77.665 229.579 78.34C229.132 78.34 228.61 78.565 228.014 79.015C227.456 79.4275 226.971 80.2338 226.561 81.4338C226.152 82.6338 225.947 84.4338 225.947 86.8338C225.947 89.0463 226.133 90.7713 226.506 92.0088C226.878 93.2088 227.344 94.09 227.903 94.6525C228.461 95.1775 229.039 95.5525 229.635 95.7775C229.896 96.565 230.063 97.5588 230.138 98.7588C230.25 99.9588 230.287 101.215 230.25 102.528C230.25 103.803 230.157 105.04 229.97 106.24C229.784 107.44 229.542 108.434 229.244 109.221C227.754 109.034 225.872 108.828 223.6 108.603C221.364 108.415 219.036 108.321 216.614 108.321C213.485 108.321 210.449 108.434 207.506 108.659C204.562 108.884 201.377 109.071 197.95 109.221C198.471 106.746 198.676 104.665 198.564 102.978C198.453 101.29 197.95 99.8088 197.056 98.5338C196.161 97.2213 194.82 95.9838 193.032 94.8213L189.629 93.3755L192.138 96.1713C193.74 97.2588 194.913 98.4025 195.659 99.6025C196.404 100.765 196.795 102.134 196.832 103.709C196.907 105.246 196.702 107.084 196.217 109.221C194.988 109.071 193.479 108.884 191.691 108.659C189.94 108.434 187.854 108.321 185.432 108.321C183.159 108.321 180.887 108.434 178.614 108.659C176.379 108.884 174.498 109.071 172.97 109.221Z" fill="white"/>
<path d="M234.013 109.221C233.715 108.434 233.472 107.44 233.286 106.24C233.1 105.04 232.988 103.803 232.951 102.528C232.951 101.215 232.988 99.9588 233.063 98.7588C233.174 97.5588 233.361 96.565 233.621 95.7775C234.217 95.5525 234.851 95.1775 235.521 94.6525C236.192 94.1275 236.825 93.265 237.421 92.065C238.055 90.865 238.539 89.1775 238.874 87.0025C239.172 85.2025 239.247 83.74 239.098 82.615C238.949 81.4525 238.669 80.5713 238.26 79.9713C237.887 79.3338 237.477 78.9025 237.03 78.6775C236.62 78.415 236.267 78.2838 235.968 78.2838C235.633 77.6088 235.391 76.69 235.242 75.5275C235.093 74.365 235.018 73.1275 235.018 71.815C235.056 70.465 235.168 69.1713 235.354 67.9338C235.54 66.6588 235.819 65.5713 236.192 64.6713C237.608 64.8213 239.321 64.99 241.333 65.1775C243.382 65.365 245.692 65.4588 248.263 65.4588C250.349 65.4588 252.547 65.4213 254.857 65.3463C257.204 65.2713 259.476 65.1775 261.674 65.065C263.872 64.9525 265.791 64.8213 267.43 64.6713C267.207 66.0963 267.151 67.8775 267.263 70.015C267.412 72.1525 267.989 74.215 268.995 76.2025C269.032 74.14 269.088 72.0775 269.163 70.015C269.274 67.915 269.461 66.1338 269.721 64.6713C271.286 64.7463 272.758 64.8588 274.136 65.0088C275.515 65.1213 276.949 65.2338 278.439 65.3463C279.967 65.4213 281.699 65.4588 283.636 65.4588C284.903 65.4588 286.356 65.4213 287.995 65.3463C289.634 65.2338 291.217 65.1213 292.745 65.0088C294.272 64.8588 295.502 64.7463 296.433 64.6713C296.806 65.5713 297.085 66.6588 297.271 67.9338C297.458 69.1713 297.551 70.465 297.551 71.815C297.588 73.1275 297.532 74.365 297.383 75.5275C297.234 76.69 296.992 77.6088 296.657 78.2838C296.396 78.2838 296.042 78.415 295.595 78.6775C295.185 78.9025 294.794 79.3338 294.421 79.9713C294.086 80.5713 293.881 81.4338 293.807 82.5588C293.732 83.6463 293.881 85.09 294.254 86.89C294.738 89.065 295.26 90.7713 295.818 92.0088C296.415 93.2088 297.011 94.09 297.607 94.6525C298.24 95.1775 298.855 95.5525 299.451 95.7775C299.712 96.565 299.879 97.5588 299.954 98.7588C300.066 99.9588 300.103 101.215 300.066 102.528C300.066 103.803 299.972 105.04 299.786 106.24C299.6 107.44 299.358 108.434 299.06 109.221C297.532 109.071 295.669 108.884 293.471 108.659C291.311 108.434 288.572 108.321 285.257 108.321C282.09 108.321 279.072 108.434 276.204 108.659C273.372 108.884 271.193 109.071 269.666 109.221C269.517 108.434 269.386 107.44 269.274 106.24C269.163 105.04 269.088 103.803 269.051 102.528C269.014 101.215 269.014 99.9588 269.051 98.7588C269.088 97.5588 269.163 96.565 269.274 95.7775H271.23L270.671 89.4775L267.374 99.04L256.533 94.2588L255.863 95.7775L261.954 98.5338C262.811 98.9088 263.63 99.3213 264.413 99.7713C265.195 100.184 265.866 100.746 266.424 101.459C266.983 102.171 267.356 103.146 267.542 104.384C267.766 105.584 267.728 107.196 267.43 109.221C266.722 109.146 265.735 109.053 264.468 108.94C263.202 108.865 261.786 108.771 260.221 108.659C258.694 108.584 257.111 108.509 255.471 108.434C253.869 108.359 252.361 108.321 250.945 108.321C246.81 108.321 243.308 108.434 240.439 108.659C237.608 108.884 235.466 109.071 234.013 109.221Z" fill="white"/>
<path d="M303.965 109.221C303.629 108.434 303.369 107.44 303.182 106.24C302.996 105.04 302.884 103.803 302.847 102.528C302.81 101.215 302.847 99.9588 302.959 98.7588C303.108 97.5588 303.313 96.565 303.573 95.7775C304.132 95.5525 304.691 95.1775 305.25 94.6525C305.846 94.09 306.33 93.2088 306.703 92.0088C307.075 90.7713 307.262 89.0463 307.262 86.8338C307.262 84.4338 307.038 82.6338 306.591 81.4338C306.144 80.1963 305.622 79.3713 305.026 78.9588C304.468 78.5088 303.983 78.2838 303.573 78.2838C303.238 77.6088 302.977 76.69 302.791 75.5275C302.605 74.365 302.512 73.1275 302.512 71.815C302.549 70.465 302.661 69.1713 302.847 67.9338C303.071 66.6588 303.387 65.5713 303.797 64.6713C304.915 64.7463 306.349 64.8588 308.1 65.0088C309.851 65.1588 311.695 65.29 313.632 65.4025C315.607 65.4775 317.432 65.515 319.109 65.515C320.972 65.515 322.89 65.4775 324.865 65.4025C326.839 65.29 328.702 65.1588 330.453 65.0088C332.204 64.8588 333.638 64.7463 334.756 64.6713C335.128 65.5713 335.408 66.6588 335.594 67.9338C335.78 69.1713 335.873 70.465 335.873 71.815C335.873 73.165 335.799 74.4213 335.65 75.5838C335.501 76.7463 335.259 77.665 334.923 78.34C334.365 78.34 333.806 78.565 333.247 79.015C332.688 79.4275 332.222 80.2338 331.85 81.4338C331.477 82.6338 331.291 84.4338 331.291 86.8338C331.291 89.0463 331.477 90.7713 331.85 92.0088C332.26 93.2088 332.744 94.09 333.303 94.6525C333.862 95.1775 334.421 95.5525 334.979 95.7775C335.277 96.565 335.482 97.5588 335.594 98.7588C335.706 99.9588 335.743 101.215 335.706 102.528C335.669 103.803 335.557 105.04 335.371 106.24C335.184 107.44 334.923 108.434 334.588 109.221C333.471 109.109 332.036 108.978 330.285 108.828C328.534 108.715 326.672 108.603 324.697 108.49C322.722 108.378 320.804 108.321 318.941 108.321C317.227 108.321 315.421 108.378 313.521 108.49C311.658 108.603 309.87 108.715 308.156 108.828C306.479 108.978 305.082 109.109 303.965 109.221Z" fill="white"/>
<path d="M428.562 109.615C425.582 109.615 422.974 109.559 420.739 109.446C418.503 109.371 416.398 109.278 414.424 109.165C412.449 109.09 410.4 109.034 408.277 108.996C406.153 108.996 403.713 109.053 400.956 109.165C400.658 108.378 400.416 107.403 400.23 106.24C400.044 105.04 399.932 103.784 399.895 102.471C399.895 101.159 399.932 99.9213 400.006 98.7588C400.118 97.5588 400.304 96.565 400.565 95.7775C401.347 95.5525 402.018 95.14 402.577 94.54C403.136 93.9025 403.564 92.9275 403.862 91.615C404.16 90.3025 404.309 88.5213 404.309 86.2713C404.309 84.1338 404.123 82.5025 403.75 81.3775C403.415 80.2525 402.968 79.465 402.409 79.015C401.85 78.565 401.236 78.2838 400.565 78.1713C400.193 77.0838 399.932 75.715 399.783 74.065C399.634 72.3775 399.634 70.6713 399.783 68.9463C399.969 67.1838 400.304 65.6838 400.789 64.4463C403.173 64.6713 405.427 64.7838 407.55 64.7838C409.711 64.7838 411.928 64.7463 414.2 64.6713C416.473 64.5588 418.95 64.465 421.633 64.39C424.315 64.2775 427.389 64.2213 430.853 64.2213C438.751 64.2213 444.787 65.8713 448.959 69.1713C453.169 72.4713 455.274 77.7588 455.274 85.0338C455.274 87.4713 455.05 89.89 454.603 92.29C454.194 94.6525 453.43 96.8838 452.312 98.9838C451.232 101.046 449.686 102.884 447.674 104.496C445.662 106.071 443.092 107.328 439.962 108.265C436.87 109.165 433.07 109.615 428.562 109.615ZM426.047 90.2088H429.456L431.692 82.9525H423.812L426.047 90.2088Z" fill="white"/>
<path d="M340.473 109.165C340.175 108.377 339.933 107.383 339.746 106.183C339.56 104.983 339.448 103.746 339.411 102.471C339.411 101.158 339.448 99.902 339.523 98.702C339.635 97.502 339.821 96.5083 340.082 95.7208C340.678 95.4958 341.255 95.1208 341.814 94.5958C342.373 94.0333 342.839 93.152 343.211 91.952C343.584 90.7145 343.77 88.9895 343.77 86.777C343.77 84.377 343.546 82.577 343.099 81.377C342.69 80.1395 342.187 79.3145 341.59 78.902C341.032 78.452 340.529 78.227 340.082 78.227C339.746 77.552 339.504 76.6333 339.355 75.4708C339.206 74.3083 339.132 73.0708 339.132 71.7583C339.169 70.4083 339.281 69.1145 339.467 67.877C339.653 66.602 339.933 65.5145 340.305 64.6145C341.348 64.6895 342.559 64.802 343.938 64.952C345.353 65.0645 346.788 65.177 348.241 65.2895C349.731 65.3645 351.109 65.402 352.376 65.402C355.095 65.402 357.945 65.3458 360.926 65.2333C363.943 65.0833 367.445 64.877 371.432 64.6145C370.836 67.0895 370.593 69.1145 370.705 70.6895C370.854 72.2645 371.543 73.6333 372.773 74.7958C374.002 75.9583 375.902 77.1583 378.473 78.3958L381.456 78.9583L379.199 76.9333C376.852 75.8083 375.139 74.7583 374.058 73.7833C373.015 72.7708 372.456 71.5708 372.382 70.1833C372.307 68.7583 372.549 66.902 373.108 64.6145C374.71 64.652 376.517 64.802 378.529 65.0645C380.578 65.327 382.906 65.4583 385.514 65.4583C387.824 65.4583 389.91 65.3645 391.773 65.177C393.673 64.952 395.387 64.7645 396.914 64.6145C397.249 65.5145 397.51 66.602 397.696 67.877C397.883 69.1145 397.976 70.4083 397.976 71.7583C397.976 73.1083 397.901 74.3645 397.752 75.527C397.603 76.6895 397.38 77.6083 397.082 78.2833C396.635 78.2833 396.113 78.5083 395.517 78.9583C394.958 79.3708 394.474 80.177 394.064 81.377C393.654 82.577 393.449 84.377 393.449 86.777C393.449 88.9895 393.636 90.7145 394.008 91.952C394.381 93.152 394.846 94.0333 395.405 94.5958C395.964 95.1208 396.541 95.4958 397.138 95.7208C397.398 96.5083 397.566 97.502 397.641 98.702C397.752 99.902 397.79 101.158 397.752 102.471C397.752 103.746 397.659 104.983 397.473 106.183C397.287 107.383 397.044 108.377 396.746 109.165C395.256 108.977 393.375 108.771 391.102 108.546C388.867 108.358 386.539 108.265 384.117 108.265C380.988 108.265 377.951 108.377 375.008 108.602C372.065 108.827 368.88 109.015 365.452 109.165C365.974 106.69 366.179 104.608 366.067 102.921C365.955 101.233 365.452 99.752 364.558 98.477C363.664 97.1645 362.323 95.927 360.535 94.7645L357.131 93.3188L359.641 96.1145C361.242 97.202 362.416 98.3458 363.161 99.5458C363.906 100.708 364.297 102.077 364.335 103.652C364.409 105.19 364.204 107.027 363.72 109.165C362.49 109.015 360.982 108.827 359.193 108.602C357.442 108.377 355.356 108.265 352.935 108.265C350.662 108.265 348.39 108.377 346.117 108.602C343.882 108.827 342 109.015 340.473 109.165Z" fill="white"/>
<path d="M133.312 137.61C131.473 137.61 130.067 137.106 129.095 136.099C127.791 134.862 127.139 133.081 127.139 130.755C127.139 128.382 127.791 126.601 129.095 125.411C130.067 124.403 131.473 123.899 133.312 123.899C135.152 123.899 136.557 124.403 137.53 125.411C138.828 126.601 139.477 128.382 139.477 130.755C139.477 133.081 138.828 134.862 137.53 136.099C136.557 137.106 135.152 137.61 133.312 137.61ZM135.853 134.13C136.476 133.339 136.787 132.214 136.787 130.755C136.787 129.302 136.473 128.18 135.844 127.389C135.221 126.592 134.377 126.193 133.312 126.193C132.247 126.193 131.397 126.589 130.763 127.38C130.128 128.171 129.811 129.296 129.811 130.755C129.811 132.214 130.128 133.339 130.763 134.13C131.397 134.921 132.247 135.316 133.312 135.316C134.377 135.316 135.224 134.921 135.853 134.13Z" fill="white"/>
<path d="M161.98 132.592H159.247V137.25H156.575V124.295H162.181C163.473 124.295 164.503 124.629 165.272 125.297C166.04 125.965 166.424 126.999 166.424 128.399C166.424 129.929 166.04 131.01 165.272 131.643C164.503 132.275 163.406 132.592 161.98 132.592ZM163.237 129.894C163.586 129.583 163.761 129.091 163.761 128.417C163.761 127.743 163.584 127.263 163.228 126.976C162.879 126.688 162.387 126.545 161.753 126.545H159.247V130.359H161.753C162.387 130.359 162.882 130.204 163.237 129.894Z" fill="white"/>
<path d="M192.376 131.59H186.124V134.921H193.249V137.25H183.496V124.295H192.935V126.589H186.124V129.34H192.376V131.59Z" fill="white"/>
<path d="M220.73 137.25H218.04L212.784 128.048V137.25H210.278V124.295H213.098L218.224 133.339V124.295H220.73V137.25Z" fill="white"/>
<path d="M240.683 137.25H238.177V124.295H242.089L244.429 134.481L246.752 124.295H250.62V137.25H248.114V128.487C248.114 128.235 248.117 127.884 248.122 127.433C248.128 126.976 248.131 126.624 248.131 126.378L245.695 137.25H243.084L240.666 126.378C240.666 126.624 240.669 126.976 240.674 127.433C240.68 127.884 240.683 128.235 240.683 128.487V137.25Z" fill="white"/>
<path d="M267.884 124.295H270.556V137.25H267.884V124.295Z" fill="white"/>
<path d="M298.455 137.25H295.766L290.509 128.048V137.25H288.003V124.295H290.824L295.949 133.339V124.295H298.455V137.25Z" fill="white"/>
<path d="M321.491 137.25H315.946V124.295H321.491C322.288 124.307 322.952 124.4 323.482 124.576C324.384 124.875 325.114 125.423 325.673 126.22C326.121 126.864 326.427 127.562 326.59 128.312C326.753 129.062 326.834 129.776 326.834 130.456C326.834 132.179 326.491 133.638 325.804 134.833C324.873 136.444 323.435 137.25 321.491 137.25ZM323.49 127.6C323.077 126.896 322.259 126.545 321.037 126.545H318.557V135H321.037C322.306 135 323.19 134.37 323.691 133.11C323.965 132.419 324.101 131.596 324.101 130.641C324.101 129.322 323.898 128.309 323.49 127.6Z" fill="white"/>
</g>
<defs>
<clipPath id="clip0_22680_2019">
<rect width="456" height="180" fill="white"/>
</clipPath>
</defs>
</svg>
