<svg width="1048" height="286" viewBox="0 0 1048 286" fill="none" xmlns="http://www.w3.org/2000/svg">
<path d="M201.99 89.6C201.99 89.6 244.99 94.6 259.99 86.6C266.32 83.23 272.4 78.1 273.9 70.75C274.03 70.13 274.12 69.47 273.94 68.86C273.35 66.85 269.99 64.87 268.11 64.26C265.62 63.45 263.59 64.49 262.65 66.92C259.49 75.1 263.59 85.04 267.54 90.57C271.49 96.1 296.49 103.1 310.49 88.1C316.01 82.18 321.82 73.85 320.12 65.27C320.02 64.78 319.89 64.27 319.6 63.86C318.61 62.48 315.35 62.55 313.93 63.08C311.11 64.15 309.98 67.38 309.49 70.1C307.49 81.1 310.49 87.1 321.49 89.1C332.49 91.1 362.49 93.1 387.49 87.1C412.49 81.1 463.49 77.1 475.49 77.1C487.49 77.1 589.49 75.1 604.49 72.1C619.49 69.1 642.49 66.1 650.49 67.1C654.52 67.6 658.33 69.26 661.88 71.16C663.49 72.02 665.03 72.98 666.58 73.93C667.98 74.78 669.68 75.42 670.63 76.83C671.1 77.52 671.33 78.35 671.49 79.17C672.5 84.63 670.04 89.88 665.58 93.04L665.49 93.11C662.79 95 658.12 98.05 654.68 96.29C650.68 94.25 652.36 87.6 653.07 84.32C653.4 82.8 653.77 81.28 654.31 79.81C656.1 75.02 660.46 71.64 664.66 68.99C668.93 66.29 673.55 64.17 678.25 62.32C682.69 60.57 687.23 59.08 691.81 57.77C694.91 56.88 698.04 56.07 701.19 55.38C701.62 55.29 702.05 55.19 702.48 55.11C707.48 54.11 736.48 48.11 748.48 62.11C756.78 71.8 748.21 82.13 739.73 87.84C739.26 88.16 738.78 88.46 738.26 88.67C734.97 89.98 729.02 89.21 725.97 87.41C721.67 84.87 722.3 79.79 723.9 75.74C725.03 72.89 726.62 70.22 728.32 67.68C745.47 42.1 843.27 34.03 859.87 32.56" stroke="white" stroke-width="3" stroke-miterlimit="10"/>
<path d="M0.219938 285.2C-0.890062 282.56 2.46994 279.85 4.68994 279.34C12.7099 277.49 22.5699 278.07 30.5399 277.2C41.1599 276.03 60.8899 272.36 66.7599 262.77L83.5499 213.25H68.5499C57.0599 213.25 44.1299 204.06 34.6699 198.47C30.5599 196.04 30.3999 197.21 26.8999 192.91C18.5099 182.6 19.0999 167.56 21.7499 155.15C23.6499 146.26 36.7599 122.11 42.5399 114.62C45.7999 110.39 52.1299 106.57 56.1499 102.91C67.3099 92.76 78.8399 79.39 94.6199 76.73C96.0199 76.49 97.4799 76.72 98.8799 76.66C99.1499 75.58 98.6799 75.59 98.1499 75.06C90.2799 67.1 88.5299 60.32 89.5199 48.99C90.0299 43.11 96.2699 31.32 100.53 27.34C104.37 23.75 115.29 20.72 120.49 21.42C124.99 22.03 125.34 24.12 128.16 25.74C131.7 27.77 135.1 27.16 137.85 31.39C142.25 38.16 136.77 39.25 136.89 42.27C137.03 46.05 141.74 50.25 142.16 54.25C154.37 57.11 157.91 61.39 145.32 68.16C144.81 70.65 142.98 81.62 144.66 82.72L149.55 84.66C150.43 79.02 150.92 71.87 154.33 67.12C157.74 62.37 161.94 65.57 166.56 66C169.18 66.24 171.87 65.75 174.48 66.08C181.42 66.96 188.32 69.37 195.44 69.45C195.79 72.17 197.95 74.21 198.71 76.51C199.47 78.81 200.29 88.36 200.22 90.66C200.18 92 197.96 101.75 197.38 102.48C196.71 103.34 193.45 104.11 192.22 103.99C192.97 106.37 193.02 108.43 192.8 110.9C192.05 119.35 189.67 130.84 187.91 139.32C187.51 141.26 185.76 144.74 185.66 145.75C185.52 147.25 188.02 147.74 188.05 149.46C188.19 155.96 181.1 176.39 177.66 182.38C173.62 189.43 167.41 194.65 160.21 198.26C162.38 199.21 163.15 200.89 164.33 202.81C177.82 224.82 184.07 250.37 194.76 273.67C196.58 277.64 199.01 281.28 200.88 285.21H195.55C190.54 269.75 179.8 256.14 173.89 241.23C172.37 237.4 171.65 232.96 170.06 229.07C166.08 219.38 160.96 210.14 158.18 199.97C150.74 201.65 143.57 202.53 135.96 201.19C131.51 200.41 127.55 198.65 125.23 194.63C114.85 204.28 102.99 208.54 89.5599 212.24C98.3499 229.29 110.9 243.96 120.76 260.35C124.56 266.67 129.65 275.13 132.79 281.65C133.37 282.86 133.76 283.82 133.56 285.21H124.89C124.92 283.74 123.7 279.91 121.9 279.87L120.23 285.21H115.56L117.93 270.54C108.41 254.93 100.84 234.42 89.7099 220.1C89.1999 219.45 88.9799 218.41 87.8999 218.57C85.8499 223.79 82.9999 228.86 81.7199 234.39C80.6899 238.85 79.3799 246.93 78.9099 251.57C78.5199 255.42 80.1299 262.08 76.8499 264.83C76.3099 265.28 70.2399 269.25 69.5799 269.56C63.7099 272.32 53.0799 276.68 46.9099 278.22C34.1199 281.41 20.8699 280.68 7.94994 282.61C6.12994 282.88 5.13994 283.06 5.56994 285.21H0.219938V285.2ZM114.22 25.35L109.56 27.34C110.88 27.29 113.64 26.69 114.22 25.35ZM96.2199 42C93.9399 41.9 93.6899 45.04 93.5599 46.66L96.2199 42ZM134.19 43.34C127.56 45.92 120.37 45.37 113.49 47.07C111.63 49.98 112.22 53.94 111.41 56.84C110.52 60.05 108.62 61.85 108.23 66.33C108.05 68.41 108.41 78.63 109.22 79.98C109.47 80.39 113.84 83.54 114.63 83.9C118.84 85.86 131 85.76 135.93 85.34C137.09 85.24 138.12 85.47 138.89 84.3L133.52 81.69C129.91 74.61 138.25 74.34 140.56 71.97C142.04 70.45 141.17 67.37 142.18 65.75C143.01 64.41 149.32 63.43 149.57 60.33C147.02 57.79 142.38 58.62 139.86 56.02C137.87 53.97 134.88 43.82 134.2 43.33L134.19 43.34ZM98.2099 69.32C98.1699 67.91 97.1999 66.56 96.5599 65.31C96.0699 64.36 95.2199 62.35 94.2199 61.99C94.3299 64.64 96.1799 67.63 98.2099 69.32ZM163.55 87.64C164.08 85.55 163.55 79.04 163.55 76.31C163.55 75.71 161.97 69.56 161.6 69.09C160.97 68.27 158.54 67.88 157.57 68.29C153.77 69.92 152.49 84.71 152.89 88.64C154.21 87.99 154.1 86.04 155.5 84.93C158.66 82.43 162.65 84.64 162.23 88.65C162.65 88.67 163.5 87.88 163.56 87.65L163.55 87.64ZM176.98 100.54C180.22 100.67 192.77 102.49 194.57 100.65C198.03 97.13 197.84 74.8 193.08 72.79L164.9 68.65C165.31 71.05 166.54 73.27 166.82 75.72C167.18 78.8 166.27 83.62 167.03 86.17C167.28 87.03 169.53 89.84 169.89 91.29C177.63 85.26 175.54 99.68 176.98 100.54ZM140.88 75.32C138.22 75.65 135.7 77.82 136.22 80.64H140.89V75.32H140.88ZM121.55 88.64C117.01 88.62 111.04 87.5 107.85 84.01C106.67 82.72 106.01 79.9 104.41 79.42L93.5499 81.32C93.9399 85.33 98.2199 88.32 101.34 90.52C103.47 92.02 118.44 100.37 119.55 99.31L121.55 88.65V88.64ZM118.77 102.07C111.61 98.98 103.45 95.51 97.5399 90.31C96.3999 89.31 91.8699 83.86 91.2599 83.99C80.8799 93.5 75.5099 106.96 70.8799 119.94L93.8099 123.8L104.56 110.64C105.85 108.66 108.49 111.23 107.89 112.62C106.89 114.77 102.68 117.69 101.91 119.31C101.43 120.33 101.63 121.54 101.19 122.59C100.8 123.52 99.1899 123.84 99.5499 125.27L113.8 128.56C114.71 128.29 114.62 127.57 114.85 126.91C115.84 124.07 119.68 103.51 118.77 102.06V102.07ZM144.31 104.54C145.45 104.79 147.1 104.91 147.9 103.97C148.21 103.61 150.74 95.37 150.75 94.85C150.76 93.97 149.77 93.27 149.59 92.28C149.33 90.92 149.98 89.24 149.23 87.98C148.67 87.03 143.74 84.49 142.9 85.31C142.74 87.71 143.25 103.89 144.32 104.54H144.31ZM85.5499 85.98C84.3999 84.97 77.3399 92.02 76.1599 92.91C69.3499 98.04 66.1499 101.94 60.2199 106.97C57.7299 109.08 54.3999 110.55 51.9999 112.74C51.3499 113.33 50.5699 113.34 50.8799 114.61C54.1099 114.87 65.2299 120.43 67.5599 118.98C68.3399 118.5 73.5299 104.64 74.7699 102.18C77.6699 96.44 81.3799 90.84 85.5499 85.97V85.98ZM161.5 103.91C160.37 104.13 158.75 104.21 158.3 102.87C157.52 100.55 160.02 93.24 159.58 89.61C158.86 83.62 155.41 91.19 154.56 93.32C151.14 101.85 149.76 108.1 145.39 116.82C144.92 117.77 145.1 119.31 144.75 119.82C144.18 120.64 141.77 119.95 142.19 121.63C142.46 123.39 151.35 128.31 153.55 130.28C157.42 133.73 159.99 138.36 164.54 141.27C168.23 133.56 173.18 124.29 173.4 115.63C173.43 114.62 172.82 113.49 172.84 112.33C172.93 105.99 172.84 99.65 172.86 93.32L167.9 107.34C167.24 107.95 167.08 108.29 166.19 107.65C164.55 106.45 167.14 93.53 166.19 90.65C163.67 91.85 162.42 103.25 161.47 103.92L161.5 103.91ZM141.55 103.3L140.21 87.98C135.18 90.2 129.55 89.04 124.22 89.32L122.21 100.64L141.55 103.31V103.3ZM128.12 133.2C129.12 131.04 130.7 128.78 132.24 126.97C137.64 120.62 146.23 115.24 140.46 106.05L122.6 103.38C121.25 103.7 121.03 112.71 120.7 114.77C119.89 119.72 118.58 124.64 117.5 129.54L128.12 133.19V133.2ZM182.89 116.62C181.2 112.62 184.57 103.92 178.89 103.96C177.04 111.57 179.73 118.57 177.51 126.24C176.78 128.75 174.17 133.08 172.75 135.48C171.95 136.84 167.4 142.42 168.21 143.27L182.2 145.94C182.04 144.11 183.6 143.02 184.05 141.45C185.87 135.11 189.39 113.74 188.9 107.59C188.8 106.4 189.1 105.44 187.87 104.64C184.5 107.01 187.14 112.36 186.11 115.53L185.13 116.55L182.88 116.62H182.89ZM144.23 110.63L146.21 108.29L145.22 107.3H144.23V110.62V110.63ZM48.6899 116.05C47.9199 116.25 42.3899 122 41.6599 123.07C38.1199 128.27 32.7399 138.17 29.8699 143.93C28.4999 146.68 27.4099 149.54 26.3199 152.41L26.5099 153.27C31.8099 157.36 36.3399 162.43 42.5599 165.2C43.5699 165.13 47.7199 152.89 48.7599 150.82C50.8999 146.58 66.2899 124.36 66.1999 122.28L48.6899 116.04V116.05ZM92.8899 125.96L68.9899 122.74C62.3399 138.02 49.4399 150.46 46.2799 167.21C61.7899 173.66 78.6899 174.98 94.8299 179.21L96.8799 171.27C91.4999 171.72 80.9199 174.26 76.8699 169.62C72.3499 164.44 79.9499 149.45 82.7699 144.17C83.9399 141.98 94.0399 127.06 92.8899 125.96ZM147.49 148.54L150.79 132.43L139.29 124.56C134.93 129.98 129.68 135.08 127.56 141.93C135.08 141.83 140.08 149.25 147.5 148.53L147.49 148.54ZM113.56 131.29C109.14 131.29 102.9 127.58 99.0299 127.4C98.1299 127.36 97.9599 127.31 97.1899 127.89C96.3299 128.53 92.3099 135.31 91.4399 136.83C88.5799 141.82 82.3199 152.97 80.5699 157.95C78.9499 162.54 78.8899 166.39 84.6199 167.2C87.4799 167.61 97.6599 166.92 99.5899 164.96C101.52 163 108.53 146.76 109.88 143.27C111.38 139.39 112.56 135.33 113.56 131.29ZM105.56 160.6C110.75 157.15 114.75 152.81 118.5 147.88C120.27 145.56 124.67 139.44 125.68 137.05C126.02 136.26 126.57 136.44 125.56 135.62C124.42 134.69 117.62 131.92 116.56 133.27L105.57 160.6H105.56ZM153.89 135.3L150.94 148.19L159.11 150.54C166.24 143.34 158.37 140.58 153.89 135.3ZM146.22 151.95C141.6 151.95 129.16 142.6 125.56 144.27C124.01 144.99 120.17 152 118.55 153.95C111.42 162.55 100.2 166.58 98.4799 178.58C98.3799 179.28 97.9699 179.93 98.4799 180.62C99.8699 182.59 126.84 187.48 129.53 186.25C129.9 186.08 134.46 181.95 134.73 181.46C137.27 176.87 141.45 166.6 143.37 161.44C144.52 158.35 145.48 155.17 146.21 151.95H146.22ZM171.46 147.37C166.71 145.26 165.06 147.75 163.06 151.78C156.21 165.62 155.1 164.99 144.85 175.56C144.34 176.09 141.04 180.14 141.55 180.59C151.12 180.66 160.65 179.44 169.94 177.33C174.52 168.06 172.95 157.23 171.45 147.38L171.46 147.37ZM176.7 175.74C177.72 174.73 180.45 165.88 181.08 163.8C181.9 161.08 184.51 153.21 184.26 150.96C183.96 148.21 176.48 148.74 174.23 147.95C175.93 157.63 176.12 166.93 174.23 176.6C174.53 176.92 176.28 176.17 176.71 175.75L176.7 175.74ZM142.23 172.6C146.66 167.25 153.79 161.06 156.91 154.95C157.24 154.31 158.01 154.43 156.89 153.6L149.58 151.96L142.23 172.59V172.6ZM31.5499 191.25C32.5999 182.42 38.7199 175.73 41.4999 167.7L25.5599 155.27C23.4499 156.83 24.0799 179.65 25.2199 183.25C25.7299 184.86 29.6199 192.85 31.5399 191.25H31.5499ZM44.2799 169.31C42.7199 173.4 32.0599 191.35 34.4999 194.63C35.0299 195.35 36.6999 195.13 37.4999 195.63C52.2799 204.76 63.9399 209.35 81.8899 207.26C83.2499 207.1 84.1999 206.94 85.1799 205.88C86.5799 204.37 90.2199 194.94 91.0599 192.43C91.7399 190.43 94.2799 183.29 93.2599 181.88C91.8999 179.99 66.4999 175.98 62.2099 174.93C56.1099 173.43 50.3899 170.74 44.2799 169.31ZM174.89 179.27C171.55 178.69 172.15 182.61 170.89 184.59C172.08 185.83 174.54 179.75 174.89 179.27ZM168.88 180.59C159.2 181.5 149.66 183.77 139.85 182.19C134.77 187.75 125.48 188.94 136 195.13C141.62 198.43 147.42 198.29 153.72 197.09C162.48 195.43 167.31 189.05 168.87 180.59H168.88ZM124.89 188.59L96.8899 183.25C95.6799 191.5 91.7699 198.87 88.8899 206.57C102.78 207.39 115.4 197.63 124.89 188.59ZM130.22 195.24L128.23 192.58L128.9 195.24H130.22Z" fill="white"/>
<path d="M136.87 59.97C135.79 60.23 135.06 60.69 133.99 59.95C129.31 56.72 137.47 53.2 136.87 59.97Z" fill="white"/>
<path d="M860.18 31.3L859.89 31.33V32.56L860.18 31.3Z" fill="white"/>
<path d="M1041.4 138.44C1035.44 123.61 1012.37 97.58 999.5 87.69C987.43 78.42 971.48 72.85 956.23 75.31L957.84 58.61C958.7 57.42 967.08 58.44 969.7 53.13C970.95 50.6 970.91 45.77 970.09 43.12C969.63 41.62 967.79 41.55 967.24 40.65C966.47 39.36 966.93 37.3 966.48 35.93C963.9 28.03 965.45 28.65 964.91 20.98C964.7 17.99 964.16 12.3 960.23 12.68C960.17 15.45 961.77 17.65 962.15 20.42C962.25 21.13 962.72 22.84 961.56 22.67C960.92 19.97 959.11 10.03 956.87 8.98C956.11 8.62 955.07 9.37 954.95 9.29C954.45 8.95 952.69 1.55 949.51 3.74L948.88 11.35C946.37 8.81 943.9 2.61 939.84 2.02C936.46 1.52 936.52 4.26 933.79 0.0999962C930.32 -0.850004 931.74 5.1 932.22 6.68C931.93 7.04 927.24 1.13 924.36 2.83C924.2 2.92 922.37 5.61 922.33 5.78C921.86 8.1 928.42 17.85 928.15 18.87C923.15 24.36 921.95 31.78 918.56 37.98C911.15 33.01 908.79 41.44 909.55 47.67C910.28 53.68 916.35 50.94 916.73 52.96C916.01 59.5 914.63 66.13 915.55 72.64C913.17 71.9 911.05 70.37 908.5 70.04C882.34 66.63 869.13 90.68 854.87 107.61C852.24 110.72 846.18 117.98 842.9 119.63C831.84 125.18 828.66 114.08 831.91 105.31C836.56 92.77 867.5 80.4 877.87 71.3C880.59 68.92 881.97 67.3 881.65 63.41C888.41 61.66 903.71 61.27 898.23 50.67C907.68 49.85 909.83 43.56 909.55 35C909.47 32.73 908.84 27.86 908.19 25.71C907.27 22.69 906.08 21.61 903.06 20.84C889.67 19.16 876.43 16.28 862.85 17.64L860.18 31.3L859.89 32.56L859.55 34L859.58 43.66C844.85 48.1 830.33 53.27 817.11 61.2C793.75 75.23 788.58 99.29 792.23 124.95C793.32 132.66 795.91 138.96 800.91 144.92C815.85 162.73 867.94 171.8 883.9 152.61C887.7 148.03 889.92 141.22 894.88 137.28L892.2 158.91C893.02 172.88 892.67 187.12 891.97 201.02C890.55 229.16 885.79 257.04 884.22 285.2H890.22C892.28 277.91 891.14 270.29 891.53 262.85C892.2 250.03 893.8 237.16 893.56 224.24L898.22 184.58C900.77 184.71 903.37 184.43 905.92 184.56C921.87 185.32 937.41 187.67 953.23 189.24C957.41 189.66 979.73 189.74 981.27 191.87C981.9 200.22 980.85 208.54 981.56 216.9C982.62 229.35 987.29 240.98 988.22 253.56L990.22 285.2H993.56C992.89 268.26 992.05 251.22 988.89 234.56C993.15 235.21 997.55 235.93 1001.88 235.89C1003.94 235.86 1009.91 235.44 1011.74 235.08C1012.46 234.93 1016.32 233.02 1016.6 232.58L1015.56 227.9C1018.4 229.06 1019.18 222.65 1018.58 221.26C1016.14 215.61 1000.59 221.71 1004.84 210.19C1007.44 203.17 1022.73 201.65 1029.1 197.79C1052.9 183.4 1050.74 161.69 1041.4 138.44ZM900.56 26C908.54 28.75 908.43 45.07 900.23 47.33C900.31 45.85 901.21 44.56 900.93 43C900.65 41.35 899.07 41.6 898.88 40.87C898.55 39.57 899.81 25.98 900.56 26ZM955.56 91.64C955.44 92.41 955.23 92.84 954.57 93.27C948.37 90.86 943.09 86.74 938.23 82.3L956.22 78.65C956.65 79.13 955.79 90.25 955.56 91.64ZM952.9 14.68H953.55L954.22 18.01C952.71 17.61 952.79 15.93 952.9 14.68ZM950.88 23.34L946.89 18.68C949.64 18.26 950.65 21.1 950.88 23.34ZM939.89 4.7L946.89 14.67C943.65 14.91 939.32 9.61 939.03 6.86C938.9 5.69 938.86 5.45 939.89 4.7ZM936.78 16.77L947.55 30.67C946.04 32.06 933.64 20.16 932.23 18.34L936.78 16.77ZM926.9 6.02C928.35 6.65 934.9 13.77 934.22 14.67L930.28 15.97C928.87 12.62 926.18 9.98 926.9 6.02ZM925.04 29.15C925.71 27.56 928.82 20.48 930.91 21.63C931.91 22.19 935.09 27.31 936.53 28.7C939.25 31.33 944.85 35.02 948.65 35.3C950.89 35.45 952.82 34.06 954.72 35.51L958.31 43.24L966.93 43.62C968.11 44.44 967.6 49.3 967.24 50.67C965.64 56.8 956.68 54.17 955.22 56.65L954.13 75.88C942.78 80.4 930.62 79.75 919.05 76.49C917.83 75.29 918.09 67.14 918.2 64.96C918.75 53.41 920.54 39.81 925.04 29.15ZM912.9 41.01C914.03 38.03 919 39.34 918.22 42.66C917.46 42.22 912.3 42.56 912.9 41.01ZM912.23 43.33C913.31 43.05 912.63 44.22 913.03 44.48C913.86 45.01 916.36 44.67 917.54 45.35L916.85 49.29C912.4 49.65 911.72 47.34 912.23 43.33ZM916.89 79.31C922.33 80.66 927.93 82.14 933.56 81.98C932.18 84.79 917.22 91.59 915.56 89.97L916.89 79.31ZM889.04 45.76C884.88 49.76 892.71 48.52 895.55 48.67L887.56 53.67C886.88 56.8 895.4 54.48 896.89 54.66C893.42 60.23 885.58 58.13 880.23 60.66L874.9 49.03C875.05 48.31 878.64 46.72 879.57 46.34C881.23 45.65 886.4 43.99 887.89 43.99H898.22L889.04 45.76ZM864.85 20.95L896.22 24.01C894.83 29.49 893.77 34.95 894.23 40.67C889.43 40.74 883.1 41.42 878.74 43.51C876.67 44.5 875.43 46.47 873.27 46.71C872.62 46.61 871.66 41.77 867.8 41.54C866.38 41.46 863.57 42.88 862.51 41.37C861.3 39.63 863.55 21.95 864.85 20.95ZM980.22 144.28C979.44 137.68 977.01 131.29 976.89 124.62C980.63 124.34 983.3 127.13 985.54 129.64C992.2 137.11 995.1 144.84 994.52 154.94C994.06 162.98 986.96 168.09 986.3 177.01C985.95 181.75 988.4 183.13 988.28 186.93C988.2 189.57 986.74 190.88 986.21 193.25C984.49 193.44 985.16 193.24 984.87 192.28C984.35 190.54 983.83 187.35 983.64 185.5C982.25 172.01 981.79 157.68 980.22 144.28ZM1012.22 221.24C1012.24 222.53 1010.23 221.59 1009.56 222.9C1008.4 225.17 1011.44 224.44 1011.56 224.57C1009.98 227.7 1003.67 223.63 1004.22 228.56C1005.17 228.25 1013.84 229.62 1012.56 231.23C1005.12 233.89 996.97 232.57 989.21 232.57L987.66 231.45C985.86 222.64 984.88 213.79 984.3 204.88L989.57 191.92C993.51 197.77 997.38 202.01 1003.55 205.62C1001.64 208.45 999.74 213.78 1001.08 217.06C1002.19 219.78 1009.58 220.66 1012.22 221.24ZM1032.54 191.23C1024.38 198.32 1016.31 198.48 1007.06 203.15C997.57 200.56 992.15 189.86 989.53 180.96C986.49 170.61 995.88 165.11 997.4 156.11C999.7 142.51 993.16 132.9 983.2 124.64C980.84 122.68 973.92 117.5 973.83 123.61C973.69 133.47 976.39 149.15 977.64 159.52C978.75 168.74 981.38 177.83 980.89 187.25C975.62 186.83 970.37 186 965.1 185.51C947.39 183.86 928.49 180.94 910.53 181.23C907.54 181.28 897.02 183.73 896.22 179.6C895.84 177.65 896.55 175.45 896.52 173.59C896.2 158.42 896.08 144.99 899.29 129.86C899.89 127.06 902.9 124.72 899.78 122.68C898.2 122.21 894.6 125.78 893.65 127.04C882.13 142.28 885.69 154.14 861.88 157.26C849.47 158.88 834.59 159.13 823.11 154.05C811.97 149.13 797.75 139.61 795.72 126.79C790.83 96.03 798.06 73.81 827.11 60.54C840.6 54.37 855.05 49.52 869.77 47.39C873.4 52.55 879.46 63.58 875.16 69.26C871.97 73.48 859.29 79.16 854.28 82.36C849.31 85.53 831.45 96.61 829.51 100.92C827.42 105.58 826 116.7 827.72 121.46C829.37 126.04 838.26 126.59 842.27 125.66C846.3 124.73 856.58 115.24 858.8 111.53C861.73 106.62 861.75 106.29 865.32 101.73C874.44 90.08 876.24 83.28 890.69 75.44C897.55 71.72 907.93 70.9 914.6 75.31C915.27 78.95 910.77 90.16 912.52 92.68C921.34 95.6 928.99 88.72 936.58 85.32C940.52 87.9 952.72 99.54 957.28 96.03C959.63 94.22 958.95 79.79 960.18 78.93C972.18 76.75 982.32 81.61 992.17 87.69C1014.47 101.49 1033.8 127.8 1040.7 153.13C1045.17 169.53 1046.33 179.24 1032.54 191.23Z" fill="white"/>
<path d="M931.55 285.2C933.74 271.67 932.3 257.84 933.07 244.24C933.36 239.01 934.7 233.36 934.91 228.26C935.24 220.3 933.37 212.21 933.55 204.24C933.72 202.84 934.53 202.33 935.88 202.57C936.37 202.66 937.41 209.14 937.54 210.25C938.42 217.71 939.23 227.38 939.58 234.87C940.34 251.4 939.28 268.68 938.89 285.2H931.56H931.55Z" fill="white"/>
<path d="M940.72 95.46C942.36 99.91 942.53 104.41 936.65 103.92C925.23 102.96 933.33 91.63 940.72 95.46ZM938.22 100.63C938.71 95.44 931.5 99.33 935.34 100.52C936.25 100.8 937.28 100.62 938.22 100.63Z" fill="white"/>
<path d="M938.67 116.84C940.16 118.51 940.54 122.21 939.23 123.97C938.33 125.18 934.52 124.57 932.98 124.53C929.97 120.28 934.63 112.31 938.67 116.84ZM934.89 121.95C938.22 122.2 938.22 119.71 934.89 119.96V121.95Z" fill="white"/>
<path d="M932.22 47.34C933.26 49 934.85 49.82 935.3 51.97C935.7 53.9 935.1 57.36 932.93 55.97C932.74 55.85 932.28 52.65 931.59 51.62C930.85 50.53 929.14 50.29 928.67 49.17C926.05 43 932.1 45.82 933.92 44.02L936.56 36.68C938.79 36.66 937.7 48.99 932.23 47.33L932.22 47.34Z" fill="white"/>
<path d="M941.37 56.11C947.94 54.71 947.76 66.31 941.83 66.65C940 66.75 935.1 64.51 935.11 62.32C935.11 60.79 939.8 56.44 941.37 56.11ZM943.55 58.66C943.07 58.12 937.19 61.21 938.23 62.64C940.26 63.55 941.22 64.2 943.48 63.24L943.55 58.66Z" fill="white"/>
<path d="M966.88 46.67C967.77 47.77 961.15 52.3 960.22 51.33C959.78 47.62 963.54 45.07 966.88 46.67Z" fill="white"/>
<path d="M929.06 39.51C929.98 38.55 931.32 38.76 931.88 40C934.22 45.19 925.88 42.82 929.06 39.51Z" fill="white"/>
<path d="M949.55 45.99H945.55L945.87 43.31C947.16 41.36 950.21 43.95 949.55 45.99Z" fill="white"/>
</svg>
