<?xml version="1.0" standalone="no"?>
<!DOCTYPE svg PUBLIC "-//W3C//DTD SVG 20010904//EN"
 "http://www.w3.org/TR/2001/REC-SVG-20010904/DTD/svg10.dtd">
<svg version="1.0" xmlns="http://www.w3.org/2000/svg"
 width="899pt" height="218.5pt" viewBox="0 0 4367.000000 655.000000"
 preserveAspectRatio="xMidYMid meet">

<g transform="translate(0.000000,655.000000) scale(0.100000,-0.100000)"
fill="#000000" stroke="none">
<path d="M38836 6528 c-24 -38 -27 -80 -12 -163 7 -44 12 -81 11 -83 -2 -2
-28 19 -59 47 -102 93 -186 132 -238 112 -15 -5 -45 -37 -68 -71 -37 -54 -41
-66 -35 -98 9 -50 51 -140 150 -323 47 -85 85 -165 85 -176 0 -11 -8 -27 -17
-34 -26 -22 -111 -156 -150 -238 -19 -41 -59 -137 -89 -214 -30 -76 -73 -178
-95 -227 l-41 -88 -62 29 c-135 64 -239 16 -290 -134 -38 -112 -44 -260 -14
-360 6 -21 28 -53 49 -71 36 -33 58 -41 180 -61 21 -3 42 -11 47 -18 7 -8 1
-87 -19 -247 -25 -195 -29 -264 -27 -408 2 -94 0 -172 -3 -172 -4 0 -54 20
-112 45 -135 58 -190 68 -372 68 -300 0 -553 -77 -816 -251 -272 -179 -503
-418 -921 -954 -441 -565 -668 -809 -823 -883 -210 -102 -384 -44 -451 150
-25 75 -30 235 -9 336 64 318 315 540 1170 1039 567 331 680 405 811 535 101
99 124 145 124 240 l0 52 188 37 c228 45 306 67 394 113 142 74 187 175 138
313 -11 30 -19 58 -20 61 0 4 22 9 49 13 188 25 319 132 378 310 26 78 28 89
27 286 0 380 -56 560 -192 618 -49 21 -550 98 -933 143 -198 23 -553 35 -710
25 l-105 -8 -55 -281 -56 -282 -44 -3 c-399 -24 -1434 -145 -2038 -238 -1211
-186 -2223 -450 -2763 -720 l-87 -44 -91 35 c-208 81 -430 116 -730 117 -398
1 -793 -60 -1267 -197 -484 -139 -876 -299 -1150 -471 -55 -35 -105 -64 -111
-64 -5 0 -47 17 -93 39 -196 90 -311 113 -554 112 -355 0 -1019 -78 -1590
-186 -99 -19 -236 -41 -305 -49 -585 -70 -2427 -138 -5045 -186 -621 -11 -980
-34 -1795 -116 -837 -83 -1479 -177 -2030 -299 -349 -77 -542 -107 -910 -142
-269 -25 -1102 -25 -1380 0 -368 34 -567 70 -672 123 -29 14 -54 28 -56 29 -2
2 26 46 62 99 148 217 216 405 218 601 2 184 -35 261 -140 291 -75 22 -173 14
-239 -20 -145 -73 -216 -256 -217 -561 -1 -146 2 -166 25 -235 22 -64 51 -118
93 -175 23 -30 -152 -190 -300 -275 -97 -55 -271 -115 -394 -135 -123 -19
-367 -19 -490 0 -204 33 -386 98 -496 176 -43 32 -102 114 -152 214 l-20 40
104 99 c58 54 125 127 150 161 106 149 168 351 134 440 -16 42 -100 124 -170
165 -122 73 -221 84 -307 34 -58 -33 -91 -80 -119 -168 -59 -187 -48 -411 31
-636 19 -54 23 -50 -121 -121 -163 -80 -418 -134 -749 -159 -180 -13 -770 -13
-1001 0 -199 11 -519 37 -575 46 l-37 5 -7 -61 c-4 -34 -5 -63 -3 -65 4 -4
280 -30 483 -45 238 -18 870 -24 1075 -11 430 28 687 83 903 193 54 28 99 49
101 47 1 -2 25 -42 52 -89 69 -120 157 -205 264 -257 358 -172 839 -201 1207
-72 182 64 335 161 471 301 l73 75 77 -39 c168 -83 475 -131 1027 -159 252
-13 803 -7 1020 11 391 32 642 70 1022 154 637 141 1497 257 2558 346 611 51
630 51 2090 80 2145 42 3946 119 4315 185 41 7 164 29 273 49 682 123 1422
197 1665 167 97 -12 212 -44 307 -86 l57 -26 -84 -88 c-123 -129 -168 -225
-224 -476 -21 -92 -28 -148 -28 -241 -1 -115 0 -123 29 -179 77 -150 232 -182
432 -90 103 48 245 148 309 219 66 72 137 212 155 304 17 92 8 245 -20 307
-32 72 -70 106 -208 187 -68 40 -120 75 -116 79 5 4 63 38 130 76 472 270
1294 521 1913 585 69 7 224 12 345 12 240 0 381 -16 540 -58 155 -42 151 -33
39 -108 -218 -146 -337 -274 -467 -505 -172 -304 -190 -539 -52 -692 78 -86
248 -142 435 -144 95 -1 127 3 180 21 132 45 394 274 505 442 27 41 65 115 84
165 34 86 36 96 35 215 0 112 -3 132 -27 193 -14 37 -43 93 -64 125 -45 68
-153 178 -213 218 l-43 28 84 39 c807 370 2324 684 4179 866 462 46 505 49
510 44 3 -2 7 -92 8 -198 l4 -193 -59 -17 c-122 -35 -555 -181 -713 -240 -535
-202 -996 -442 -1270 -661 -120 -96 -282 -263 -369 -381 -222 -302 -350 -626
-418 -1063 -26 -165 -26 -704 0 -905 48 -372 118 -580 274 -815 166 -248 393
-426 748 -587 l140 -63 280 0 280 1 -130 34 c-161 42 -252 77 -425 164 -518
260 -871 605 -975 953 -46 156 -79 482 -79 793 0 280 11 392 60 614 133 594
506 1050 1134 1384 268 142 753 335 1112 442 260 78 607 158 783 180 l50 7 58
-94 c166 -265 248 -523 217 -680 -6 -34 -18 -75 -26 -90 -53 -103 -207 -211
-619 -433 -485 -261 -1147 -717 -1277 -879 -71 -89 -127 -336 -135 -602 -9
-264 19 -355 130 -423 138 -85 432 -101 573 -31 117 57 305 211 476 389 95 99
128 142 208 274 51 86 132 205 178 264 46 60 138 185 204 278 267 375 369 498
517 617 190 154 435 289 606 335 90 24 118 26 280 27 206 1 272 -11 395 -72
l75 -37 -1 -75 c-1 -48 -19 -150 -48 -283 -38 -168 -46 -223 -44 -285 3 -74 4
-77 33 -92 22 -11 64 -15 160 -15 108 0 142 4 205 23 91 29 242 101 450 216
85 47 159 86 165 86 5 -1 82 -57 170 -126 298 -234 463 -330 585 -341 138 -13
164 48 194 457 19 257 22 271 62 283 16 5 112 10 214 10 155 1 201 -3 283 -21
280 -62 594 -210 937 -443 885 -600 1631 -1652 1905 -2684 l32 -120 111 -3
c106 -3 112 -2 112 17 0 39 -81 337 -131 484 -108 318 -189 484 -361 745 -349
528 -952 1207 -1406 1583 -372 308 -824 515 -1282 585 -130 20 -444 24 -544 7
l-58 -10 5 51 c3 28 18 182 33 341 15 163 32 295 38 302 6 7 61 22 121 33 237
42 324 95 376 227 19 49 23 77 23 188 1 179 -11 217 -80 261 -30 19 -57 42
-62 52 -5 9 -12 50 -16 90 -3 40 -20 121 -38 180 -30 104 -31 114 -34 329 -4
328 -25 442 -95 515 -29 30 -43 38 -72 38 -33 0 -37 -3 -37 -25 0 -13 17 -79
39 -147 44 -140 59 -222 41 -233 -6 -4 -14 -5 -17 -2 -3 4 -20 71 -38 149 -43
187 -91 329 -127 379 -28 39 -32 40 -75 37 l-46 -3 -30 72 c-39 97 -97 163
-142 163 -18 0 -37 -6 -42 -12 -9 -11 -33 -237 -33 -301 0 -24 -22 2 -115 138
-124 180 -211 244 -312 231 -27 -3 -63 -9 -81 -12 -31 -6 -38 -2 -82 45 -54
58 -90 67 -114 29z m475 -385 c76 -109 134 -200 128 -202 -29 -9 -107 36 -174
103 -111 110 -166 244 -119 291 9 9 18 14 21 11 3 -2 67 -94 144 -203z m-566
44 c89 -91 185 -214 185 -237 0 -7 -143 -60 -160 -60 -3 0 -36 60 -74 133 -59
114 -69 141 -73 200 -5 53 -3 67 8 67 8 0 59 -46 114 -103z m991 -274 c3 -16
10 -44 15 -63 13 -52 11 -56 -16 -30 -20 19 -25 33 -25 72 0 52 16 65 26 21z
m-486 -343 c117 -151 217 -281 223 -287 7 -10 4 -13 -11 -13 -49 0 -288 190
-507 405 l-110 107 90 33 c50 19 93 33 97 32 3 -1 102 -126 218 -277z m294
179 c31 -24 60 -78 71 -129 7 -35 7 -35 -12 -15 -11 11 -48 53 -82 93 l-63 72
30 0 c16 0 41 -9 56 -21z m-2834 -140 c344 -34 626 -62 628 -64 2 -1 -8 -51
-22 -111 -38 -168 -56 -310 -56 -448 0 -69 -4 -126 -9 -126 -4 0 -66 -5 -136
-10 -240 -20 -441 -71 -538 -138 -29 -19 -74 -50 -101 -69 -71 -49 -88 -45
-127 28 -38 71 -107 136 -155 145 -19 3 -70 1 -112 -6 -95 -16 -129 -9 -143
28 -30 74 21 586 76 780 14 46 19 52 43 52 15 0 308 -27 652 -61z m2107 9 c17
-18 68 -85 115 -148 105 -143 221 -241 378 -320 119 -60 175 -73 280 -65 124
10 148 8 174 -8 12 -8 49 -75 84 -153 91 -199 77 -184 175 -184 45 0 126 -3
179 -7 l97 -6 12 -35 c13 -41 6 -205 -11 -265 -16 -53 -71 -110 -130 -136 -27
-12 -107 -30 -178 -41 -132 -20 -177 -33 -186 -55 -2 -7 -14 -188 -26 -401
-12 -214 -23 -394 -25 -399 -4 -14 -176 -70 -290 -94 -164 -35 -274 -44 -497
-38 -227 5 -363 23 -565 74 -144 36 -138 20 -137 363 1 611 108 1226 286 1640
79 185 167 310 217 310 9 0 31 -15 48 -32z m-1225 -188 c81 -53 136 -147 162
-273 49 -236 -31 -474 -185 -553 -57 -28 -58 -27 -34 68 20 76 9 118 -41 147
l-34 20 0 86 c0 124 35 445 56 518 7 24 24 21 76 -13z m602 -534 c41 -17 66
-51 66 -89 l0 -28 -77 7 c-86 7 -143 26 -143 46 1 20 33 56 60 67 35 14 56 13
94 -3z m-154 -181 c0 -26 5 -28 123 -40 32 -4 60 -12 63 -18 2 -7 -2 -43 -9
-82 l-12 -70 -62 0 c-69 0 -96 16 -119 72 -20 46 -19 163 1 163 9 0 15 -9 15
-25z m-832 -38 c-123 -25 -162 -37 -181 -55 -32 -30 -39 -58 -20 -77 21 -21
43 -25 178 -28 l120 -2 -162 -100 c-98 -61 -162 -106 -163 -116 0 -26 33 -48
82 -55 25 -4 102 1 172 11 70 9 130 15 132 12 9 -9 -78 -87 -123 -111 -66 -33
-108 -43 -275 -66 -80 -11 -176 -29 -214 -40 -38 -10 -72 -16 -76 -12 -9 9
-218 463 -218 473 0 11 115 74 188 104 33 13 111 40 174 59 l113 35 215 0 215
-1 -157 -31z m-6162 -664 c165 -136 242 -308 214 -475 -13 -74 -67 -195 -124
-273 -82 -114 -278 -288 -390 -348 -36 -19 -56 -22 -166 -21 -107 1 -137 5
-205 27 -139 46 -194 113 -195 236 0 86 22 167 80 289 132 277 276 435 552
603 l93 57 38 -21 c22 -12 68 -45 103 -74z m-17787 -162 c27 -27 37 -135 22
-239 -13 -89 -46 -193 -91 -283 -30 -58 -145 -235 -159 -243 -12 -8 -61 87
-77 148 -32 118 -9 395 42 506 45 99 88 130 182 130 48 0 66 -4 81 -19z
m-2071 -56 c71 -33 134 -79 154 -113 30 -50 -10 -180 -93 -308 -51 -78 -190
-224 -214 -224 -16 0 -50 123 -66 235 -12 88 -6 213 14 290 38 141 92 173 205
120z m16526 -361 c148 -87 181 -114 195 -158 51 -164 -5 -355 -143 -491 -116
-113 -290 -205 -388 -205 -55 0 -105 30 -124 75 -22 53 -17 181 12 322 31 154
63 248 106 320 33 55 182 213 201 213 6 0 69 -34 141 -76z m12131 -316 c-11
-230 -30 -415 -45 -432 -19 -23 -33 -20 -133 28 -150 72 -358 217 -512 356
l-54 49 32 6 c18 4 181 37 362 75 182 37 336 69 344 69 11 1 12 -25 6 -151z
m-1503 92 c176 -43 328 -69 446 -77 56 -3 102 -10 102 -14 0 -13 -98 -83 -185
-131 -200 -112 -485 -215 -538 -195 -11 4 -9 43 14 224 16 120 28 219 29 221
0 4 6 3 132 -28z"/>
<path d="M38970 4870 c-29 -82 -59 -155 -65 -160 -7 -6 -54 -17 -105 -24 -57
-9 -99 -21 -111 -32 -23 -21 -25 -64 -3 -126 12 -37 26 -53 69 -82 61 -40 79
-68 100 -158 20 -85 54 -110 93 -67 36 38 43 140 13 204 -10 22 -37 61 -60 87
-22 25 -41 48 -41 51 0 2 19 7 42 10 55 7 107 61 138 143 41 107 38 304 -4
304 -7 0 -36 -67 -66 -150z"/>
<path d="M38715 4906 c-54 -54 -36 -118 38 -143 73 -25 112 18 88 98 -20 68
-81 90 -126 45z"/>
<path d="M39443 4769 c-28 -10 -30 -14 -38 -81 l-7 -58 86 0 86 0 0 34 c0 62
-75 124 -127 105z"/>
<path d="M40135 4615 c-74 -29 -131 -112 -123 -181 3 -25 7 -29 32 -26 60 7
206 105 239 161 17 29 17 30 -2 41 -35 18 -104 20 -146 5z"/>
<path d="M39202 4203 c-102 -56 -235 -199 -235 -254 0 -81 201 -195 308 -175
51 10 125 84 143 142 20 69 15 164 -11 215 -40 76 -135 109 -205 72z m103
-291 c-3 -3 -31 -7 -63 -10 -45 -3 -66 2 -102 20 -24 13 -46 28 -48 35 -6 21
70 85 142 119 l71 34 3 -96 c1 -53 0 -99 -3 -102z"/>
<path d="M4810 5654 c-287 -50 -525 -148 -641 -265 -179 -180 -408 -635 -439
-871 -15 -117 -12 -353 6 -459 39 -228 143 -422 333 -617 71 -74 68 -82 -24
-82 -271 0 -645 -169 -995 -450 -135 -109 -216 -182 -514 -463 -122 -115 -288
-261 -371 -325 -321 -248 -379 -308 -531 -549 -334 -526 -701 -1286 -739
-1530 l-7 -43 76 0 c67 0 76 2 76 18 0 10 6 27 14 37 12 17 15 16 61 -18 44
-34 53 -37 117 -37 l70 0 -101 86 c-56 47 -101 92 -101 101 0 8 23 74 52 147
81 208 304 630 502 954 72 117 109 165 204 263 63 66 128 129 144 140 l28 20
342 -122 c189 -67 353 -125 366 -130 l22 -9 -36 -72 c-45 -89 -156 -268 -386
-623 -219 -339 -269 -418 -301 -482 -23 -45 -107 -256 -107 -268 0 -3 29 -5
64 -5 l64 0 66 133 c79 160 157 291 372 628 170 267 315 519 354 614 12 30 27
55 34 55 6 0 227 -29 491 -65 263 -36 483 -65 487 -65 38 0 -50 -173 -261
-509 -84 -135 -182 -304 -218 -375 -60 -120 -173 -385 -173 -407 0 -5 35 -9
78 -9 l79 0 105 212 c188 382 489 904 570 991 38 40 38 40 97 34 60 -7 104
-20 338 -101 73 -26 160 -49 193 -53 69 -7 68 17 9 -193 -60 -215 -104 -330
-270 -702 -44 -97 -79 -179 -79 -182 0 -3 29 -6 64 -6 l64 0 46 112 c25 62
116 286 200 498 85 211 161 389 170 395 36 22 292 -56 353 -109 l25 -22 -31
-63 c-85 -166 -338 -507 -510 -683 l-124 -128 115 0 115 0 65 67 c36 38 112
140 170 229 58 88 122 180 143 202 34 38 42 42 84 42 72 0 154 -33 410 -161
220 -111 332 -159 372 -159 10 0 20 -4 23 -9 3 -5 -7 -54 -23 -110 l-28 -101
62 0 63 0 37 105 c21 58 43 105 49 105 31 0 293 -64 304 -75 11 -9 6 -22 -22
-66 -20 -29 -36 -57 -36 -62 0 -4 44 -6 98 -5 l97 3 85 165 c95 186 148 252
214 264 66 12 153 -14 161 -48 10 -45 45 -318 45 -351 l0 -35 61 0 61 0 -7 73
c-4 39 -15 125 -24 190 -17 118 -17 118 4 113 11 -3 80 -12 154 -21 151 -17
216 -40 231 -80 11 -29 1 -108 -25 -205 -8 -30 -15 -58 -15 -62 0 -5 35 -8 79
-8 l78 0 22 100 c11 55 24 131 27 169 l7 68 -52 57 c-28 31 -51 65 -51 75 0
11 20 74 45 140 65 174 192 814 240 1216 18 145 16 306 -4 357 -10 26 -9 27
37 34 75 11 145 39 164 65 19 26 89 288 112 423 16 88 9 237 -20 470 -20 164
-31 197 -95 308 -28 50 -57 109 -64 132 l-12 41 -93 7 c-112 9 -248 32 -510
88 -184 39 -209 42 -430 50 -203 7 -249 12 -335 34 -129 33 -186 33 -253 0
-126 -63 -212 -266 -267 -635 -13 -89 -26 -164 -29 -166 -7 -7 -194 68 -207
83 -28 34 -17 270 24 513 l12 74 88 55 c178 109 264 216 237 296 -25 76 -133
143 -326 201 -65 20 -120 38 -122 40 -2 2 -14 32 -27 67 -12 35 -48 106 -80
158 -135 221 -142 263 -66 384 56 88 68 134 51 197 -18 66 -69 156 -116 204
-48 50 -106 81 -219 119 -96 32 -162 68 -235 132 -30 26 -80 59 -110 73 -48
23 -69 26 -175 27 -66 1 -131 0 -145 -2z m-71 -181 c-19 -22 -88 -53 -119 -52
-17 0 -1 11 50 33 41 19 77 35 79 35 2 1 -3 -6 -10 -16z m-743 -689 c-9 -23
-86 -154 -91 -154 -6 0 4 55 17 97 9 31 50 73 70 73 6 0 7 -7 4 -16z m1609
-61 c3 -10 34 -90 67 -178 74 -195 119 -290 160 -332 37 -38 96 -65 209 -93
95 -24 182 -67 187 -92 7 -35 -60 -90 -175 -145 -69 -32 -118 -62 -128 -77 -9
-14 -22 -67 -28 -119 -7 -55 -20 -105 -30 -121 -12 -18 -60 -47 -143 -88 -171
-84 -217 -141 -194 -244 18 -81 26 -88 141 -144 60 -29 109 -56 109 -61 0 -30
-49 -34 -400 -34 -494 0 -550 12 -737 151 -89 66 -93 71 -103 119 -13 66 -30
304 -30 430 0 132 18 211 79 348 55 125 65 163 81 312 11 107 24 164 46 206
11 22 25 28 96 42 46 9 164 26 263 37 232 27 339 45 428 74 89 30 93 30 102 9z
m-1580 -900 c30 -57 57 -116 61 -131 5 -25 1 -23 -40 21 -50 53 -101 150 -112
212 l-7 40 21 -19 c12 -10 47 -66 77 -123z m2677 -133 c33 -15 41 -34 79 -178
29 -110 31 -130 36 -357 5 -236 5 -240 -16 -267 -30 -37 -41 -35 -41 7 0 104
-102 181 -203 154 -61 -16 -100 -50 -129 -111 -14 -30 -34 -60 -43 -68 -17
-14 -18 -8 -12 125 16 375 98 668 197 708 21 9 101 1 132 -13z m788 -94 l564
-83 33 -38 c71 -82 103 -239 110 -540 7 -310 -21 -495 -85 -566 -49 -55 -173
-59 -614 -18 -96 9 -128 16 -133 27 -3 8 -10 60 -15 116 -19 189 -44 269 -96
303 -23 14 -32 15 -71 4 -25 -6 -59 -21 -74 -32 -28 -19 -29 -20 -36 -2 -4 10
-32 58 -62 108 l-56 90 -1 230 0 230 -37 113 c-43 133 -44 142 -14 142 12 0
276 -38 587 -84z m-1620 -296 l0 -110 -95 0 -95 0 0 36 c0 74 54 140 137 170
21 7 41 13 46 14 4 0 7 -49 7 -110z m-1488 -83 c14 -13 40 -52 59 -87 19 -36
54 -84 79 -108 85 -82 249 -143 434 -162 55 -6 101 -12 103 -14 2 -2 -10 -77
-27 -167 -53 -284 -49 -269 -71 -269 -69 0 -546 243 -754 384 -121 82 -238
195 -269 260 -29 59 -42 106 -30 106 5 1 104 18 219 39 116 21 215 39 221 40
6 0 22 -9 36 -22z m-431 -313 c114 -127 239 -228 395 -320 103 -61 360 -186
511 -250 l93 -39 0 -65 c0 -179 -146 -970 -188 -1019 -17 -19 -24 -18 -312 50
-162 38 -296 69 -297 69 -2 0 -3 8 -3 17 0 9 16 33 35 53 29 29 37 48 46 101
13 78 39 118 125 194 84 74 144 150 144 182 0 34 -60 93 -94 93 -21 0 -64 -47
-262 -290 -197 -239 -241 -289 -258 -285 -12 3 -223 39 -471 81 -247 41 -452
77 -454 79 -2 3 20 69 49 147 216 586 432 971 702 1253 107 113 88 117 239
-51z m2100 77 c75 -29 156 -81 168 -108 6 -13 11 -58 11 -100 0 -64 4 -83 27
-122 24 -42 25 -48 14 -90 -34 -131 -104 -334 -121 -351 -23 -23 -121 -28
-138 -7 -24 30 -52 364 -52 633 0 188 -4 181 91 145z m-2508 -34 c-277 -353
-387 -543 -553 -952 -139 -345 -167 -402 -197 -410 -51 -12 -132 10 -498 139
-71 25 -140 46 -152 46 -17 0 -23 6 -23 23 0 26 75 86 240 192 122 78 168 116
344 280 203 190 284 262 386 344 52 42 142 118 200 170 112 100 234 191 257
191 12 0 11 -5 -4 -23z m3081 -56 c32 -36 31 -145 -3 -344 -49 -279 -42 -324
49 -333 25 -3 51 -1 58 4 7 5 31 83 53 173 63 257 105 369 140 369 13 0 11
-151 -6 -335 -18 -198 -19 -312 -2 -345 14 -28 58 -39 74 -18 6 7 55 138 109
292 l99 279 7 -414 c4 -228 10 -445 13 -484 17 -181 -71 -470 -266 -874 -49
-102 -91 -187 -94 -189 -2 -3 -29 14 -58 36 -52 39 -110 100 -299 312 -74 83
-109 112 -277 225 -241 164 -291 206 -291 245 0 26 5 31 43 41 58 15 64 22 72
82 4 29 20 77 35 107 54 107 122 275 201 499 160 451 216 582 280 655 36 42
40 43 63 17z m-756 -330 c18 -204 24 -311 17 -311 -35 0 -772 105 -779 111 -7
6 52 389 71 453 5 17 15 18 187 11 195 -7 313 2 413 34 32 10 59 17 61 16 2
-2 15 -143 30 -314z m-363 -381 c382 -57 357 -47 396 -148 33 -86 36 -182 9
-261 -33 -99 -92 -180 -268 -369 -161 -173 -223 -251 -277 -349 l-29 -51 -214
73 c-118 41 -216 76 -218 78 -3 3 17 101 45 218 68 295 80 360 97 549 15 176
26 248 43 294 10 25 15 28 44 22 17 -3 185 -28 372 -56z m2024 15 c54 -27 64
-69 71 -285 3 -107 9 -201 13 -207 5 -8 29 -13 56 -13 38 0 52 5 72 26 24 25
24 28 21 195 -3 158 -2 173 19 215 26 56 46 65 71 35 53 -66 -13 -692 -138
-1306 -29 -141 -42 -185 -79 -260 -25 -49 -45 -98 -45 -107 0 -10 -1 -18 -2
-18 -20 1 -572 111 -576 114 -12 12 14 63 81 161 161 236 272 435 306 550 34
117 42 221 35 490 -5 179 -3 275 6 338 11 82 13 87 37 87 13 0 37 -7 52 -15z
m-1461 -137 l21 -23 -39 -45 -39 -45 -1 68 c0 58 2 67 18 67 10 0 28 -10 40
-22z m-27 -865 c127 -86 232 -159 234 -163 3 -4 -26 -156 -63 -339 l-67 -331
-49 0 c-97 0 -191 34 -381 139 -145 80 -236 118 -320 131 -38 6 -71 13 -73 15
-7 7 56 144 104 224 61 103 360 481 381 481 3 0 108 -70 234 -157z m622 -526
c58 -62 91 -138 83 -190 -7 -43 -46 -119 -89 -171 l-24 -30 -164 48 c-90 26
-167 51 -170 54 -3 4 11 79 31 167 21 88 48 204 60 258 l22 97 106 -96 c59
-53 124 -115 145 -137z"/>
<path d="M5545 4185 c-30 -29 -31 -50 -5 -93 29 -48 75 -67 128 -53 46 13 51
26 32 90 -23 80 -103 109 -155 56z"/>
<path d="M39007 2600 c-89 -23 -158 -74 -193 -146 -44 -89 -21 -155 69 -199
95 -46 239 -51 301 -10 57 38 72 150 36 267 -17 56 -24 65 -53 76 -48 17 -117
22 -160 12z m65 -157 c10 -9 18 -30 18 -50 l0 -33 -58 0 c-92 0 -128 38 -76
79 32 25 90 27 116 4z"/>
<path d="M38952 1723 c-38 -18 -83 -80 -102 -138 -17 -53 -16 -142 3 -186 12
-30 21 -37 53 -42 64 -11 177 -8 204 6 79 39 81 237 2 321 -28 30 -79 56 -109
56 -10 0 -33 -8 -51 -17z m97 -198 c15 -15 14 -18 -8 -36 -13 -10 -36 -19 -52
-19 -27 0 -29 2 -29 41 l0 42 37 -6 c20 -4 44 -14 52 -22z"/>
<path d="M40606 1489 c-25 -30 -26 -35 -26 -167 0 -209 24 -449 105 -1040 19
-139 35 -260 35 -268 0 -11 18 -14 90 -14 l91 0 -6 58 c-3 31 -14 151 -26 267
-25 263 -30 295 -84 540 -45 207 -75 386 -75 449 0 36 0 36 43 36 77 0 160
-49 267 -158 202 -207 332 -437 393 -697 18 -75 21 -123 21 -292 l1 -203 61 0
62 0 11 75 c27 181 9 391 -48 558 -68 199 -176 362 -371 557 -152 152 -272
247 -375 297 -90 43 -134 44 -169 2z"/>
<path d="M37406 1410 c-150 -96 -258 -248 -475 -670 -70 -135 -144 -272 -166
-304 -144 -218 -352 -342 -687 -411 l-113 -24 329 0 329 -1 51 39 c121 92 193
180 318 391 103 172 149 241 211 313 90 105 88 122 35 -306 -26 -210 -47 -394
-48 -409 l0 -28 83 0 84 0 6 193 c14 427 83 900 152 1045 43 91 45 135 8 174
-34 36 -58 35 -117 -2z"/>
</g>
</svg>
